<svg width="278" height="224" fill="none" xmlns="http://www.w3.org/2000/svg"><g clip-path="url(#clip0_11_86)"><g opacity=".5"><path d="M1.649 78.03c.045-.09.09-.168.135-.247.034-.057.068-.113.102-.181.034-.056.068-.124.101-.18 1.243-2.225 3.004-4.03 5.025-4.912l.576-.248 69.333-30.221 69.332-30.221.576-.248c2.021-.881 3.918-.667 5.409.36.045.023.079.057.124.08.045.034.079.056.124.09l8.029 5.927-5.194 1.547 6.888 93.045c.18 2.405-.508 4.945-1.762 7.169-.034.067-.068.124-.102.192l-.101.169c-1.242 2.224-3.004 4.03-5.025 4.911L16.938 185.335l.553 5.847-7.61-5.633s-.08-.056-.125-.09c-1.49-1.027-2.495-2.834-2.676-5.238L.023 84.951c-.17-2.314.451-4.752 1.614-6.92h.012z" fill="#1E1C17"/><path d="M23.296 191.837l139.805-60.95c4.223-1.84 7.328-7.722 6.933-13.129l-6.956-93.915c-.395-5.408-4.155-8.298-8.378-6.446L14.894 78.347c-4.223 1.84-7.328 7.722-6.933 13.13l6.956 93.914c.395 5.408 4.155 8.298 8.379 6.446z" fill="url(#paint0_linear_11_86)"/><path d="M15.47 78.099l69.332-30.222 8.176 110.409L23.87 191.6c-4.54 1.976-8.525-.497-8.898-5.52L7.916 90.799c-.373-5.035 3.003-10.714 7.554-12.69v-.01z" fill="#C78750"/><path d="M154.135 17.645L84.803 47.867l8.118 109.708 69.615-26.451c4.539-1.975 7.927-7.665 7.554-12.689l-7.057-95.28c-.373-5.036-4.359-7.508-8.898-5.52v.01z" fill="#C78750"/><path d="M168.464 125.366c-1.366 2.552-3.478 4.697-5.928 5.769L23.871 191.589c-2.45 1.072-4.742.835-6.391-.395L87.942 90.359l80.522 35.007z" fill="#DB9F6A"/><path d="M9.542 83.868c1.366-2.552 3.478-4.697 5.928-5.77l138.665-60.453c2.45-1.072 4.743-.835 6.391.396L90.064 118.875 9.542 83.868z" fill="#9A6434"/><path d="M39.33 96.15c.045-.09.079-.192.124-.282.034-.068.057-.136.09-.203l.102-.204c1.163-2.495 2.902-4.583 5.002-5.69l.599-.316 72.133-38.168 72.133-38.169.598-.316c2.1-1.106 4.167-1.039 5.849-.045.045.022.091.056.136.079.045.034.09.056.135.079l9.124 5.724-5.465 2.077 14.996 99.548c.383 2.562-.147 5.362-1.31 7.857-.034.068-.068.135-.091.214-.034.068-.056.136-.09.192-1.163 2.495-2.902 4.584-5.002 5.69L64.523 210.34l1.072 6.254-8.638-5.441s-.09-.057-.136-.079c-1.694-.982-2.924-2.845-3.308-5.419l-15.357-101.93c-.373-2.472.101-5.16 1.174-7.575z" fill="#1E1C17"/><path d="M71.896 216.832l145.451-76.97c4.404-2.326 7.261-8.907 6.391-14.687L208.607 24.69c-.869-5.78-5.138-8.58-9.541-6.255L53.614 95.416c-4.404 2.326-7.26 8.908-6.391 14.688l15.131 100.485c.87 5.78 5.138 8.579 9.542 6.254v-.011z" fill="url(#paint1_linear_11_86)"/><path d="M54.201 95.1l72.133-38.169L144.13 175.05l-71.636 41.465c-4.731 2.506-9.214.17-10.027-5.215L47.11 109.37c-.813-5.385 2.36-11.775 7.091-14.27z" fill="#C78750"/><path d="M198.467 18.763l-72.133 38.169 17.683 117.373 72.743-34.127c4.731-2.506 7.904-8.896 7.091-14.27l-15.357-101.93c-.813-5.385-5.296-7.721-10.027-5.215z" fill="url(#paint2_linear_11_86)"/><path d="M222.666 133.484c-1.265 2.844-3.354 5.339-5.917 6.694L72.483 216.515c-2.552 1.355-5.036 1.276-6.91.091l67.593-114.224 89.488 31.102h.012z" fill="#DB9F6A"/><path d="M48.296 101.795c1.264-2.845 3.353-5.34 5.917-6.695l144.254-76.337c2.552-1.355 5.036-1.276 6.911-.09l-67.594 114.223-89.488-31.101z" fill="#9A6434"/></g><path d="M79.213 95.72c.045-.1.079-.202.124-.304.034-.068.057-.147.09-.214.034-.08.068-.147.102-.226 1.14-2.71 2.913-4.99 5.104-6.266l.621-.36 75.34-43.51 75.328-43.485.621-.362c2.191-1.264 4.393-1.275 6.234-.282.056.023.101.057.146.08.045.033.102.056.147.078l9.948 5.735-5.736 2.427 19.896 105.464c.509 2.72.057 5.723-1.084 8.422-.034.079-.067.146-.09.225-.034.068-.056.147-.09.215-1.141 2.709-2.914 5.001-5.104 6.265l-150.262 86.769 1.389 6.615-9.418-5.452s-.101-.057-.146-.079c-1.841-.982-3.219-2.924-3.738-5.645l-20.37-107.992c-.497-2.619-.09-5.498.96-8.117h-.012z" fill="#1E1C17"/><path d="M118.667 223.006l151.922-87.728c4.596-2.653 7.385-9.765 6.222-15.895L256.734 12.937c-1.152-6.13-5.816-8.94-10.411-6.288L94.401 94.366c-4.596 2.653-7.385 9.765-6.222 15.895l20.077 106.446c1.152 6.13 5.815 8.941 10.411 6.288v.011z" fill="url(#paint3_linear_11_86)"/><path d="M95.022 94.005l75.339-43.509 23.612 125.141-74.685 46.997c-4.934 2.856-9.813.542-10.885-5.159L88.032 109.482c-1.073-5.701 2.055-12.632 6.99-15.488v.01z" fill="#C78750"/><path d="M245.701 7l-75.339 43.508 23.464 124.35 76.153-39.218c4.935-2.857 8.062-9.788 6.99-15.489L256.598 12.158c-1.073-5.7-5.951-8.015-10.885-5.159h-.012z" fill="#C78750"/><path d="M275.997 128.268c-1.23 3.081-3.365 5.825-6.029 7.36l-150.68 87.006c-2.665 1.535-5.307 1.558-7.351.372l67.514-124.35 96.558 29.612h-.012z" fill="#DB9F6A"/><path d="M88.98 101.377c1.231-3.082 3.365-5.826 6.03-7.36L245.701 6.998c2.665-1.535 5.307-1.558 7.351-.373l-67.514 124.351-96.558-29.612v.012z" fill="#9A6434"/></g><defs><linearGradient id="paint0_linear_11_86" x1="98.09" y1="100.743" x2="-56.695" y2="168.255" gradientUnits="userSpaceOnUse"><stop stop-color="#7BDAFF"/><stop offset="1" stop-color="#59BDEF"/></linearGradient><linearGradient id="paint1_linear_11_86" x1="116.201" y1="128.043" x2="-44.834" y2="213.292" gradientUnits="userSpaceOnUse"><stop stop-color="#7BDAFF"/><stop offset="1" stop-color="#59BDEF"/></linearGradient><linearGradient id="paint2_linear_11_86" x1="218.828" y1="194.881" x2="70.654" y2="151.223" gradientUnits="userSpaceOnUse"><stop offset=".77" stop-color="#59BDEF"/><stop offset=".85" stop-color="#54B8EB"/><stop offset=".93" stop-color="#48AAE1"/><stop offset="1" stop-color="#3A9BD5"/></linearGradient><linearGradient id="paint3_linear_11_86" x1="155.603" y1="130.506" x2="-12.577" y2="227.668" gradientUnits="userSpaceOnUse"><stop stop-color="#7BDAFF"/><stop offset="1" stop-color="#59BDEF"/></linearGradient><clipPath id="clip0_11_86"><path fill="#fff" d="M0 0h277.172v224H0z"/></clipPath></defs></svg>